REM DIRINDEX 1\2,1\3,1\4,1\5
REM DIRNAME cjc004,folder01,folder02,folder03,folder04
TITLE ""
FILE "1Q_t_0140-0149.mp3" MP3
  TRACK 01 AUDIO
    TITLE "3:cjc004_1320"
    INDEX 01 00:00:00
  TRACK 02 AUDIO
    TITLE "0:"
    INDEX 01 00:01:07
  TRACK 03 AUDIO
    TITLE "4:cjc004_1321"
    INDEX 01 00:01:30
  TRACK 04 AUDIO
    TITLE "0:"
    INDEX 01 00:02:63
  TRACK 05 AUDIO
    TITLE "5:cjc004_1322"
    INDEX 01 00:03:14
  TRACK 06 AUDIO
    TITLE "0:"
    INDEX 01 00:07:19
  TRACK 07 AUDIO
    TITLE "3:cjc004_1323"
    INDEX 01 00:08:03
  TRACK 08 AUDIO
    TITLE "0:"
    INDEX 01 00:09:08
  TRACK 09 AUDIO
    TITLE "4:cjc004_1324"
    INDEX 01 00:09:28
  TRACK 10 AUDIO
    TITLE "0:"
    INDEX 01 00:10:53
  TRACK 11 AUDIO
    TITLE "5:cjc004_1325"
    INDEX 01 00:11:03
  TRACK 12 AUDIO
    TITLE "0:"
    INDEX 01 00:16:16
  TRACK 13 AUDIO
    TITLE "3:cjc004_1326"
    INDEX 01 00:16:69
  TRACK 14 AUDIO
    TITLE "0:"
    INDEX 01 00:18:07
  TRACK 15 AUDIO
    TITLE "4:cjc004_1327"
    INDEX 01 00:18:25
  TRACK 16 AUDIO
    TITLE "0:"
    INDEX 01 00:19:26
  TRACK 17 AUDIO
    TITLE "5:cjc004_1328"
    INDEX 01 00:19:58
  TRACK 18 AUDIO
    TITLE "0:"
    INDEX 01 00:23:36
  TRACK 19 AUDIO
    TITLE "3:cjc004_1329"
    INDEX 01 00:24:18
  TRACK 20 AUDIO
    TITLE "0:"
    INDEX 01 00:25:35
  TRACK 21 AUDIO
    TITLE "4:cjc004_1330"
    INDEX 01 00:25:70
  TRACK 22 AUDIO
    TITLE "0:"
    INDEX 01 00:27:08
  TRACK 23 AUDIO
    TITLE "5:cjc004_1331"
    INDEX 01 00:27:36
  TRACK 24 AUDIO
    TITLE "0:"
    INDEX 01 00:33:11
  TRACK 25 AUDIO
    TITLE "3:cjc004_1332"
    INDEX 01 00:33:62
  TRACK 26 AUDIO
    TITLE "0:"
    INDEX 01 00:34:59
  TRACK 27 AUDIO
    TITLE "4:cjc004_1333"
    INDEX 01 00:35:12
  TRACK 28 AUDIO
    TITLE "0:"
    INDEX 01 00:36:62
  TRACK 29 AUDIO
    TITLE "5:cjc004_1334"
    INDEX 01 00:37:12
  TRACK 30 AUDIO
    TITLE "0:"
    INDEX 01 00:41:24
  TRACK 31 AUDIO
    TITLE "3:cjc004_1335"
    INDEX 01 00:42:10
  TRACK 32 AUDIO
    TITLE "0:"
    INDEX 01 00:43:31
  TRACK 33 AUDIO
    TITLE "4:cjc004_1336"
    INDEX 01 00:43:48
  TRACK 34 AUDIO
    TITLE "0:"
    INDEX 01 00:45:30
  TRACK 35 AUDIO
    TITLE "5:cjc004_1337"
    INDEX 01 00:45:57
  TRACK 36 AUDIO
    TITLE "0:"
    INDEX 01 00:50:60
  TRACK 37 AUDIO
    TITLE "3:cjc004_1338"
    INDEX 01 00:51:44
  TRACK 38 AUDIO
    TITLE "0:"
    INDEX 01 00:52:51
  TRACK 39 AUDIO
    TITLE "4:cjc004_1339"
    INDEX 01 00:53:09
  TRACK 40 AUDIO
    TITLE "0:"
    INDEX 01 00:54:32
  TRACK 41 AUDIO
    TITLE "5:cjc004_1340"
    INDEX 01 00:54:54
  TRACK 42 AUDIO
    TITLE "0:"
    INDEX 01 00:58:62
  TRACK 43 AUDIO
    TITLE "3:cjc004_1341"
    INDEX 01 00:59:39
  TRACK 44 AUDIO
    TITLE "0:"
    INDEX 01 01:00:51
  TRACK 45 AUDIO
    TITLE "4:cjc004_1342"
    INDEX 01 01:01:09
  TRACK 46 AUDIO
    TITLE "0:"
    INDEX 01 01:02:34
  TRACK 47 AUDIO
    TITLE "5:cjc004_1343"
    INDEX 01 01:02:69
  TRACK 48 AUDIO
    TITLE "0:"
    INDEX 01 01:06:51
  TRACK 49 AUDIO
    TITLE "3:cjc004_1344"
    INDEX 01 01:07:33
  TRACK 50 AUDIO
    TITLE "0:"
    INDEX 01 01:08:52
  TRACK 51 AUDIO
    TITLE "4:cjc004_1345"
    INDEX 01 01:09:10
  TRACK 52 AUDIO
    TITLE "0:"
    INDEX 01 01:10:45
  TRACK 53 AUDIO
    TITLE "5:cjc004_1346"
    INDEX 01 01:11:05
  TRACK 54 AUDIO
    TITLE "0:"
    INDEX 01 01:16:18
  TRACK 55 AUDIO
    TITLE "3:cjc004_1347"
    INDEX 01 01:16:69
  TRACK 56 AUDIO
    TITLE "0:"
    INDEX 01 01:18:07
  TRACK 57 AUDIO
    TITLE "4:cjc004_1348"
    INDEX 01 01:18:33
  TRACK 58 AUDIO
    TITLE "0:"
    INDEX 01 01:19:46
  TRACK 59 AUDIO
    TITLE "5:cjc004_1349"
    INDEX 01 01:20:04
  TRACK 60 AUDIO
    TITLE "0:"
    INDEX 01 01:25:60
